<?xml version="1.0" encoding="UTF-8" standalone="no"?>
<!DOCTYPE svg PUBLIC "-//W3C//DTD SVG 1.1//EN"
 "http://www.w3.org/Graphics/SVG/1.1/DTD/svg11.dtd">
<!-- Generated by graphviz version 2.47.0 (20210316.0004)
 -->
<!-- Title: dependencies Pages: 1 -->
<svg width="885pt" height="284pt"
 viewBox="0.00 0.00 885.00 284.00" xmlns="http://www.w3.org/2000/svg" xmlns:xlink="http://www.w3.org/1999/xlink">
<g id="graph0" class="graph" transform="scale(1 1) rotate(0) translate(4 280)">
<title>dependencies</title>
<polygon fill="white" stroke="transparent" points="-4,4 -4,-280 881,-280 881,4 -4,4"/>
<text text-anchor="start" x="417.51" y="-42.4" font-family="Times-12" font-weight="bold" font-size="14.00">Legend</text>
<polygon fill="#ffffb3" stroke="transparent" points="204.5,-10 204.5,-30 224.5,-30 224.5,-10 204.5,-10"/>
<text text-anchor="start" x="228.13" y="-15.4" font-family="Times-12" font-size="14.00"> &#160;Declarations</text>
<polygon fill="#8dd3c7" stroke="transparent" points="317.5,-10 317.5,-30 337.5,-30 337.5,-10 317.5,-10"/>
<text text-anchor="start" x="341.23" y="-15.4" font-family="Times-12" font-size="14.00"> &#160;Module</text>
<polygon fill="#80b1d3" stroke="transparent" points="403.5,-10 403.5,-30 423.5,-30 423.5,-10 403.5,-10"/>
<text text-anchor="start" x="427.28" y="-15.4" font-family="Times-12" font-size="14.00"> &#160;Bootstrap</text>
<polygon fill="#fdb462" stroke="transparent" points="500.5,-10 500.5,-30 520.5,-30 520.5,-10 500.5,-10"/>
<text text-anchor="start" x="524.17" y="-15.4" font-family="Times-12" font-size="14.00"> &#160;Providers</text>
<polygon fill="#fb8072" stroke="transparent" points="596.5,-10 596.5,-30 616.5,-30 616.5,-10 596.5,-10"/>
<text text-anchor="start" x="620.23" y="-15.4" font-family="Times-12" font-size="14.00"> &#160;Exports</text>
<g id="clust1" class="cluster">
<title>cluster_UserModule</title>
<polygon fill="none" stroke="black" stroke-dasharray="1,5" points="8,-70 8,-268 869,-268 869,-70 8,-70"/>
</g>
<g id="clust8" class="cluster">
<title>cluster_UserModule_exports</title>
<polygon fill="none" stroke="black" points="70,-208 70,-260 807,-260 807,-208 70,-208"/>
</g>
<g id="clust7" class="cluster">
<title>cluster_UserModule_imports</title>
<polygon fill="none" stroke="black" points="747,-78 747,-130 861,-130 861,-78 747,-78"/>
</g>
<g id="clust2" class="cluster">
<title>cluster_UserModule_declarations</title>
<polygon fill="none" stroke="black" points="16,-78 16,-130 739,-130 739,-78 16,-78"/>
</g>
<!-- UserActionsComponent -->
<g id="node1" class="node">
<title>UserActionsComponent</title>
<polygon fill="#ffffb3" stroke="black" points="730.81,-122 579.19,-122 579.19,-86 730.81,-86 730.81,-122"/>
<text text-anchor="middle" x="655" y="-99.8" font-family="Times,serif" font-size="14.00">UserActionsComponent</text>
</g>
<!-- UserModule -->
<g id="node5" class="node">
<title>UserModule</title>
<polygon fill="#8dd3c7" stroke="black" points="518.98,-187 515.98,-191 494.98,-191 491.98,-187 433.02,-187 433.02,-151 518.98,-151 518.98,-187"/>
<text text-anchor="middle" x="476" y="-164.8" font-family="Times,serif" font-size="14.00">UserModule</text>
</g>
<!-- UserActionsComponent&#45;&gt;UserModule -->
<g id="edge1" class="edge">
<title>UserActionsComponent&#45;&gt;UserModule</title>
<path fill="none" stroke="black" d="M602.93,-122.03C602.93,-138.4 602.93,-160 602.93,-160 602.93,-160 529.33,-160 529.33,-160"/>
<polygon fill="black" stroke="black" points="529.33,-156.5 519.33,-160 529.33,-163.5 529.33,-156.5"/>
</g>
<!-- UserLoginFormComponent -->
<g id="node2" class="node">
<title>UserLoginFormComponent</title>
<polygon fill="#ffffb3" stroke="black" points="561.54,-122 390.46,-122 390.46,-86 561.54,-86 561.54,-122"/>
<text text-anchor="middle" x="476" y="-99.8" font-family="Times,serif" font-size="14.00">UserLoginFormComponent</text>
</g>
<!-- UserLoginFormComponent&#45;&gt;UserModule -->
<g id="edge2" class="edge">
<title>UserLoginFormComponent&#45;&gt;UserModule</title>
<path fill="none" stroke="black" d="M476,-122.11C476,-122.11 476,-140.99 476,-140.99"/>
<polygon fill="black" stroke="black" points="472.5,-140.99 476,-150.99 479.5,-140.99 472.5,-140.99"/>
</g>
<!-- UserProfileComponent -->
<g id="node3" class="node">
<title>UserProfileComponent</title>
<polygon fill="#ffffb3" stroke="black" points="371.86,-122 226.14,-122 226.14,-86 371.86,-86 371.86,-122"/>
<text text-anchor="middle" x="299" y="-99.8" font-family="Times,serif" font-size="14.00">UserProfileComponent</text>
</g>
<!-- UserProfileComponent&#45;&gt;UserModule -->
<g id="edge3" class="edge">
<title>UserProfileComponent&#45;&gt;UserModule</title>
<path fill="none" stroke="black" d="M328.12,-122.03C328.12,-138.4 328.12,-160 328.12,-160 328.12,-160 422.83,-160 422.83,-160"/>
<polygon fill="black" stroke="black" points="422.83,-163.5 432.83,-160 422.83,-156.5 422.83,-163.5"/>
</g>
<!-- UserRegisterFormComponent -->
<g id="node4" class="node">
<title>UserRegisterFormComponent</title>
<polygon fill="#ffffb3" stroke="black" points="208.24,-122 23.76,-122 23.76,-86 208.24,-86 208.24,-122"/>
<text text-anchor="middle" x="116" y="-99.8" font-family="Times,serif" font-size="14.00">UserRegisterFormComponent</text>
</g>
<!-- UserRegisterFormComponent&#45;&gt;UserModule -->
<g id="edge4" class="edge">
<title>UserRegisterFormComponent&#45;&gt;UserModule</title>
<path fill="none" stroke="black" d="M143.12,-122.11C143.12,-141.34 143.12,-169 143.12,-169 143.12,-169 422.82,-169 422.82,-169"/>
<polygon fill="black" stroke="black" points="422.82,-172.5 432.82,-169 422.82,-165.5 422.82,-172.5"/>
</g>
<!-- UserActionsComponent  -->
<g id="node7" class="node">
<title>UserActionsComponent </title>
<polygon fill="#fb8072" stroke="black" points="799.31,-252 644.69,-252 644.69,-216 799.31,-216 799.31,-252"/>
<text text-anchor="middle" x="722" y="-229.8" font-family="Times,serif" font-size="14.00">UserActionsComponent </text>
</g>
<!-- UserModule&#45;&gt;UserActionsComponent  -->
<g id="edge6" class="edge">
<title>UserModule&#45;&gt;UserActionsComponent </title>
<path fill="none" stroke="black" stroke-dasharray="5,2" d="M519.08,-178C580.96,-178 687.62,-178 687.62,-178 687.62,-178 687.62,-205.97 687.62,-205.97"/>
<polygon fill="black" stroke="black" points="684.13,-205.97 687.62,-215.97 691.13,-205.97 684.13,-205.97"/>
</g>
<!-- UserLoginFormComponent  -->
<g id="node8" class="node">
<title>UserLoginFormComponent </title>
<polygon fill="#fb8072" stroke="black" points="626.54,-252 451.46,-252 451.46,-216 626.54,-216 626.54,-252"/>
<text text-anchor="middle" x="539" y="-229.8" font-family="Times,serif" font-size="14.00">UserLoginFormComponent </text>
</g>
<!-- UserModule&#45;&gt;UserLoginFormComponent  -->
<g id="edge7" class="edge">
<title>UserModule&#45;&gt;UserLoginFormComponent </title>
<path fill="none" stroke="black" stroke-dasharray="5,2" d="M485.24,-187.11C485.24,-187.11 485.24,-205.99 485.24,-205.99"/>
<polygon fill="black" stroke="black" points="481.74,-205.99 485.24,-215.99 488.74,-205.99 481.74,-205.99"/>
</g>
<!-- UserProfileComponent  -->
<g id="node9" class="node">
<title>UserProfileComponent </title>
<polygon fill="#fb8072" stroke="black" points="433.86,-252 284.14,-252 284.14,-216 433.86,-216 433.86,-252"/>
<text text-anchor="middle" x="359" y="-229.8" font-family="Times,serif" font-size="14.00">UserProfileComponent </text>
</g>
<!-- UserModule&#45;&gt;UserProfileComponent  -->
<g id="edge8" class="edge">
<title>UserModule&#45;&gt;UserProfileComponent </title>
<path fill="none" stroke="black" stroke-dasharray="5,2" d="M442.58,-187.11C442.58,-206.34 442.58,-234 442.58,-234 442.58,-234 441.72,-234 441.72,-234"/>
<polygon fill="black" stroke="black" points="443.95,-230.5 433.95,-234 443.95,-237.5 443.95,-230.5"/>
</g>
<!-- UserRegisterFormComponent  -->
<g id="node10" class="node">
<title>UserRegisterFormComponent </title>
<polygon fill="#fb8072" stroke="black" points="266.24,-252 77.76,-252 77.76,-216 266.24,-216 266.24,-252"/>
<text text-anchor="middle" x="172" y="-229.8" font-family="Times,serif" font-size="14.00">UserRegisterFormComponent </text>
</g>
<!-- UserModule&#45;&gt;UserRegisterFormComponent  -->
<g id="edge9" class="edge">
<title>UserModule&#45;&gt;UserRegisterFormComponent </title>
<path fill="none" stroke="black" stroke-dasharray="5,2" d="M432.76,-178C366.16,-178 246.1,-178 246.1,-178 246.1,-178 246.1,-205.97 246.1,-205.97"/>
<polygon fill="black" stroke="black" points="242.6,-205.97 246.1,-215.97 249.6,-205.97 242.6,-205.97"/>
</g>
<!-- SharedModule -->
<g id="node6" class="node">
<title>SharedModule</title>
<polygon fill="#8dd3c7" stroke="black" points="853.42,-122 850.42,-126 829.42,-126 826.42,-122 754.58,-122 754.58,-86 853.42,-86 853.42,-122"/>
<text text-anchor="middle" x="804" y="-99.8" font-family="Times,serif" font-size="14.00">SharedModule</text>
</g>
<!-- SharedModule&#45;&gt;UserModule -->
<g id="edge5" class="edge">
<title>SharedModule&#45;&gt;UserModule</title>
<path fill="none" stroke="black" d="M777.1,-122.11C777.1,-141.34 777.1,-169 777.1,-169 777.1,-169 529.14,-169 529.14,-169"/>
<polygon fill="black" stroke="black" points="529.14,-165.5 519.14,-169 529.14,-172.5 529.14,-165.5"/>
</g>
</g>
</svg>
