<?xml version="1.0" encoding="UTF-8" standalone="no"?>
<!DOCTYPE svg PUBLIC "-//W3C//DTD SVG 1.1//EN"
 "http://www.w3.org/Graphics/SVG/1.1/DTD/svg11.dtd">
<!-- Generated by graphviz version 2.47.0 (20210316.0004)
 -->
<!-- Title: dependencies Pages: 1 -->
<svg width="941pt" height="211pt"
 viewBox="0.00 0.00 941.00 211.00" xmlns="http://www.w3.org/2000/svg" xmlns:xlink="http://www.w3.org/1999/xlink">
<g id="graph0" class="graph" transform="scale(1 1) rotate(0) translate(4 207)">
<title>dependencies</title>
<polygon fill="white" stroke="transparent" points="-4,4 -4,-207 937,-207 937,4 -4,4"/>
<text text-anchor="start" x="445.51" y="-42.4" font-family="Times-12" font-weight="bold" font-size="14.00">Legend</text>
<polygon fill="#ffffb3" stroke="transparent" points="232.5,-10 232.5,-30 252.5,-30 252.5,-10 232.5,-10"/>
<text text-anchor="start" x="256.13" y="-15.4" font-family="Times-12" font-size="14.00"> &#160;Declarations</text>
<polygon fill="#8dd3c7" stroke="transparent" points="345.5,-10 345.5,-30 365.5,-30 365.5,-10 345.5,-10"/>
<text text-anchor="start" x="369.23" y="-15.4" font-family="Times-12" font-size="14.00"> &#160;Module</text>
<polygon fill="#80b1d3" stroke="transparent" points="431.5,-10 431.5,-30 451.5,-30 451.5,-10 431.5,-10"/>
<text text-anchor="start" x="455.28" y="-15.4" font-family="Times-12" font-size="14.00"> &#160;Bootstrap</text>
<polygon fill="#fdb462" stroke="transparent" points="528.5,-10 528.5,-30 548.5,-30 548.5,-10 528.5,-10"/>
<text text-anchor="start" x="552.17" y="-15.4" font-family="Times-12" font-size="14.00"> &#160;Providers</text>
<polygon fill="#fb8072" stroke="transparent" points="624.5,-10 624.5,-30 644.5,-30 644.5,-10 624.5,-10"/>
<text text-anchor="start" x="648.23" y="-15.4" font-family="Times-12" font-size="14.00"> &#160;Exports</text>
<g id="clust1" class="cluster">
<title>cluster_ViewModule</title>
<polygon fill="none" stroke="black" stroke-dasharray="1,5" points="8,-70 8,-195 925,-195 925,-70 8,-70"/>
</g>
<g id="clust2" class="cluster">
<title>cluster_ViewModule_declarations</title>
<polygon fill="none" stroke="black" points="409,-78 409,-130 917,-130 917,-78 409,-78"/>
</g>
<g id="clust6" class="cluster">
<title>cluster_ViewModule_imports</title>
<polygon fill="none" stroke="black" points="16,-78 16,-130 401,-130 401,-78 16,-78"/>
</g>
<!-- ViewHomeComponent -->
<g id="node1" class="node">
<title>ViewHomeComponent</title>
<polygon fill="#ffffb3" stroke="black" points="908.86,-122 763.14,-122 763.14,-86 908.86,-86 908.86,-122"/>
<text text-anchor="middle" x="836" y="-99.8" font-family="Times,serif" font-size="14.00">ViewHomeComponent</text>
</g>
<!-- ViewModule -->
<g id="node4" class="node">
<title>ViewModule</title>
<polygon fill="#8dd3c7" stroke="black" points="461.87,-187 458.87,-191 437.87,-191 434.87,-187 372.13,-187 372.13,-151 461.87,-151 461.87,-187"/>
<text text-anchor="middle" x="417" y="-164.8" font-family="Times,serif" font-size="14.00">ViewModule</text>
</g>
<!-- ViewHomeComponent&#45;&gt;ViewModule -->
<g id="edge1" class="edge">
<title>ViewHomeComponent&#45;&gt;ViewModule</title>
<path fill="none" stroke="black" d="M836,-122.28C836,-143.32 836,-175 836,-175 836,-175 472.24,-175 472.24,-175"/>
<polygon fill="black" stroke="black" points="472.24,-171.5 462.24,-175 472.24,-178.5 472.24,-171.5"/>
</g>
<!-- ViewMessageComponent -->
<g id="node2" class="node">
<title>ViewMessageComponent</title>
<polygon fill="#ffffb3" stroke="black" points="745.13,-122 584.87,-122 584.87,-86 745.13,-86 745.13,-122"/>
<text text-anchor="middle" x="665" y="-99.8" font-family="Times,serif" font-size="14.00">ViewMessageComponent</text>
</g>
<!-- ViewMessageComponent&#45;&gt;ViewModule -->
<g id="edge2" class="edge">
<title>ViewMessageComponent&#45;&gt;ViewModule</title>
<path fill="none" stroke="black" d="M665,-122.02C665,-139.37 665,-163 665,-163 665,-163 471.91,-163 471.91,-163"/>
<polygon fill="black" stroke="black" points="471.91,-159.5 461.91,-163 471.91,-166.5 471.91,-159.5"/>
</g>
<!-- ViewProfileComponent -->
<g id="node3" class="node">
<title>ViewProfileComponent</title>
<polygon fill="#ffffb3" stroke="black" points="566.75,-122 417.25,-122 417.25,-86 566.75,-86 566.75,-122"/>
<text text-anchor="middle" x="492" y="-99.8" font-family="Times,serif" font-size="14.00">ViewProfileComponent</text>
</g>
<!-- ViewProfileComponent&#45;&gt;ViewModule -->
<g id="edge3" class="edge">
<title>ViewProfileComponent&#45;&gt;ViewModule</title>
<path fill="none" stroke="black" d="M439.53,-122.11C439.53,-122.11 439.53,-140.99 439.53,-140.99"/>
<polygon fill="black" stroke="black" points="436.03,-140.99 439.53,-150.99 443.03,-140.99 436.03,-140.99"/>
</g>
<!-- LayoutModule -->
<g id="node5" class="node">
<title>LayoutModule</title>
<polygon fill="#8dd3c7" stroke="black" points="392.71,-122 389.71,-126 368.71,-126 365.71,-122 293.29,-122 293.29,-86 392.71,-86 392.71,-122"/>
<text text-anchor="middle" x="343" y="-99.8" font-family="Times,serif" font-size="14.00">LayoutModule</text>
</g>
<!-- LayoutModule&#45;&gt;ViewModule -->
<g id="edge4" class="edge">
<title>LayoutModule&#45;&gt;ViewModule</title>
<path fill="none" stroke="black" d="M382.33,-122.11C382.33,-122.11 382.33,-140.99 382.33,-140.99"/>
<polygon fill="black" stroke="black" points="378.83,-140.99 382.33,-150.99 385.83,-140.99 378.83,-140.99"/>
</g>
<!-- SharedModule -->
<g id="node6" class="node">
<title>SharedModule</title>
<polygon fill="#8dd3c7" stroke="black" points="275.42,-122 272.42,-126 251.42,-126 248.42,-122 176.58,-122 176.58,-86 275.42,-86 275.42,-122"/>
<text text-anchor="middle" x="226" y="-99.8" font-family="Times,serif" font-size="14.00">SharedModule</text>
</g>
<!-- SharedModule&#45;&gt;ViewModule -->
<g id="edge5" class="edge">
<title>SharedModule&#45;&gt;ViewModule</title>
<path fill="none" stroke="black" d="M226,-122.02C226,-139.37 226,-163 226,-163 226,-163 361.74,-163 361.74,-163"/>
<polygon fill="black" stroke="black" points="361.74,-166.5 371.74,-163 361.74,-159.5 361.74,-166.5"/>
</g>
<!-- ViewRoutingModule -->
<g id="node7" class="node">
<title>ViewRoutingModule</title>
<polygon fill="#8dd3c7" stroke="black" points="158.49,-122 155.49,-126 134.49,-126 131.49,-122 23.51,-122 23.51,-86 158.49,-86 158.49,-122"/>
<text text-anchor="middle" x="91" y="-99.8" font-family="Times,serif" font-size="14.00">ViewRoutingModule</text>
</g>
<!-- ViewRoutingModule&#45;&gt;ViewModule -->
<g id="edge6" class="edge">
<title>ViewRoutingModule&#45;&gt;ViewModule</title>
<path fill="none" stroke="black" d="M91,-122.28C91,-143.32 91,-175 91,-175 91,-175 362.01,-175 362.01,-175"/>
<polygon fill="black" stroke="black" points="362.01,-178.5 372.01,-175 362.01,-171.5 362.01,-178.5"/>
</g>
</g>
</svg>
