<?xml version="1.0" encoding="UTF-8" standalone="no"?>
<!DOCTYPE svg PUBLIC "-//W3C//DTD SVG 1.1//EN"
 "http://www.w3.org/Graphics/SVG/1.1/DTD/svg11.dtd">
<!-- Generated by graphviz version 2.47.0 (20210316.0004)
 -->
<!-- Title: dependencies Pages: 1 -->
<svg width="890pt" height="284pt"
 viewBox="0.00 0.00 890.00 284.00" xmlns="http://www.w3.org/2000/svg" xmlns:xlink="http://www.w3.org/1999/xlink">
<g id="graph0" class="graph" transform="scale(1 1) rotate(0) translate(4 280)">
<title>dependencies</title>
<polygon fill="white" stroke="transparent" points="-4,4 -4,-280 886,-280 886,4 -4,4"/>
<text text-anchor="start" x="420.01" y="-42.4" font-family="Times-12" font-weight="bold" font-size="14.00">Legend</text>
<polygon fill="#ffffb3" stroke="transparent" points="207,-10 207,-30 227,-30 227,-10 207,-10"/>
<text text-anchor="start" x="230.63" y="-15.4" font-family="Times-12" font-size="14.00"> &#160;Declarations</text>
<polygon fill="#8dd3c7" stroke="transparent" points="320,-10 320,-30 340,-30 340,-10 320,-10"/>
<text text-anchor="start" x="343.73" y="-15.4" font-family="Times-12" font-size="14.00"> &#160;Module</text>
<polygon fill="#80b1d3" stroke="transparent" points="406,-10 406,-30 426,-30 426,-10 406,-10"/>
<text text-anchor="start" x="429.78" y="-15.4" font-family="Times-12" font-size="14.00"> &#160;Bootstrap</text>
<polygon fill="#fdb462" stroke="transparent" points="503,-10 503,-30 523,-30 523,-10 503,-10"/>
<text text-anchor="start" x="526.67" y="-15.4" font-family="Times-12" font-size="14.00"> &#160;Providers</text>
<polygon fill="#fb8072" stroke="transparent" points="599,-10 599,-30 619,-30 619,-10 599,-10"/>
<text text-anchor="start" x="622.73" y="-15.4" font-family="Times-12" font-size="14.00"> &#160;Exports</text>
<g id="clust1" class="cluster">
<title>cluster_MessageModule</title>
<polygon fill="none" stroke="black" stroke-dasharray="1,5" points="8,-70 8,-268 874,-268 874,-70 8,-70"/>
</g>
<g id="clust2" class="cluster">
<title>cluster_MessageModule_declarations</title>
<polygon fill="none" stroke="black" points="138,-78 138,-130 866,-130 866,-78 138,-78"/>
</g>
<g id="clust8" class="cluster">
<title>cluster_MessageModule_exports</title>
<polygon fill="none" stroke="black" points="145,-208 145,-260 689,-260 689,-208 145,-208"/>
</g>
<g id="clust7" class="cluster">
<title>cluster_MessageModule_imports</title>
<polygon fill="none" stroke="black" points="16,-78 16,-130 130,-130 130,-78 16,-78"/>
</g>
<!-- MessageFormComponent -->
<g id="node1" class="node">
<title>MessageFormComponent</title>
<polygon fill="#ffffb3" stroke="black" points="858.14,-122 697.86,-122 697.86,-86 858.14,-86 858.14,-122"/>
<text text-anchor="middle" x="778" y="-99.8" font-family="Times,serif" font-size="14.00">MessageFormComponent</text>
</g>
<!-- MessageModule -->
<g id="node5" class="node">
<title>MessageModule</title>
<polygon fill="#8dd3c7" stroke="black" points="475.03,-187 472.03,-191 451.03,-191 448.03,-187 366.97,-187 366.97,-151 475.03,-151 475.03,-187"/>
<text text-anchor="middle" x="421" y="-164.8" font-family="Times,serif" font-size="14.00">MessageModule</text>
</g>
<!-- MessageFormComponent&#45;&gt;MessageModule -->
<g id="edge1" class="edge">
<title>MessageFormComponent&#45;&gt;MessageModule</title>
<path fill="none" stroke="black" d="M778,-122.11C778,-141.34 778,-169 778,-169 778,-169 485.22,-169 485.22,-169"/>
<polygon fill="black" stroke="black" points="485.22,-165.5 475.22,-169 485.22,-172.5 485.22,-165.5"/>
</g>
<!-- MessageListComponent -->
<g id="node2" class="node">
<title>MessageListComponent</title>
<polygon fill="#ffffb3" stroke="black" points="680.09,-122 527.91,-122 527.91,-86 680.09,-86 680.09,-122"/>
<text text-anchor="middle" x="604" y="-99.8" font-family="Times,serif" font-size="14.00">MessageListComponent</text>
</g>
<!-- MessageListComponent&#45;&gt;MessageModule -->
<g id="edge2" class="edge">
<title>MessageListComponent&#45;&gt;MessageModule</title>
<path fill="none" stroke="black" d="M604,-122.03C604,-138.4 604,-160 604,-160 604,-160 485.41,-160 485.41,-160"/>
<polygon fill="black" stroke="black" points="485.41,-156.5 475.41,-160 485.41,-163.5 485.41,-156.5"/>
</g>
<!-- MessageListItemComponent -->
<g id="node3" class="node">
<title>MessageListItemComponent</title>
<polygon fill="#ffffb3" stroke="black" points="509.74,-122 332.26,-122 332.26,-86 509.74,-86 509.74,-122"/>
<text text-anchor="middle" x="421" y="-99.8" font-family="Times,serif" font-size="14.00">MessageListItemComponent</text>
</g>
<!-- MessageListItemComponent&#45;&gt;MessageModule -->
<g id="edge3" class="edge">
<title>MessageListItemComponent&#45;&gt;MessageModule</title>
<path fill="none" stroke="black" d="M421,-122.11C421,-122.11 421,-140.99 421,-140.99"/>
<polygon fill="black" stroke="black" points="417.5,-140.99 421,-150.99 424.5,-140.99 417.5,-140.99"/>
</g>
<!-- MessageSearchComponent -->
<g id="node4" class="node">
<title>MessageSearchComponent</title>
<polygon fill="#ffffb3" stroke="black" points="314.4,-122 145.6,-122 145.6,-86 314.4,-86 314.4,-122"/>
<text text-anchor="middle" x="230" y="-99.8" font-family="Times,serif" font-size="14.00">MessageSearchComponent</text>
</g>
<!-- MessageSearchComponent&#45;&gt;MessageModule -->
<g id="edge4" class="edge">
<title>MessageSearchComponent&#45;&gt;MessageModule</title>
<path fill="none" stroke="black" d="M233.62,-122.03C233.62,-138.4 233.62,-160 233.62,-160 233.62,-160 356.8,-160 356.8,-160"/>
<polygon fill="black" stroke="black" points="356.8,-163.5 366.8,-160 356.8,-156.5 356.8,-163.5"/>
</g>
<!-- MessageFormComponent  -->
<g id="node7" class="node">
<title>MessageFormComponent </title>
<polygon fill="#fb8072" stroke="black" points="681.14,-252 516.86,-252 516.86,-216 681.14,-216 681.14,-252"/>
<text text-anchor="middle" x="599" y="-229.8" font-family="Times,serif" font-size="14.00">MessageFormComponent </text>
</g>
<!-- MessageModule&#45;&gt;MessageFormComponent  -->
<g id="edge6" class="edge">
<title>MessageModule&#45;&gt;MessageFormComponent </title>
<path fill="none" stroke="black" stroke-dasharray="5,2" d="M475.28,-178C499.4,-178 522.44,-178 522.44,-178 522.44,-178 522.44,-205.97 522.44,-205.97"/>
<polygon fill="black" stroke="black" points="518.94,-205.97 522.44,-215.97 525.94,-205.97 518.94,-205.97"/>
</g>
<!-- MessageListComponent  -->
<g id="node8" class="node">
<title>MessageListComponent </title>
<polygon fill="#fb8072" stroke="black" points="498.59,-252 343.41,-252 343.41,-216 498.59,-216 498.59,-252"/>
<text text-anchor="middle" x="421" y="-229.8" font-family="Times,serif" font-size="14.00">MessageListComponent </text>
</g>
<!-- MessageModule&#45;&gt;MessageListComponent  -->
<g id="edge7" class="edge">
<title>MessageModule&#45;&gt;MessageListComponent </title>
<path fill="none" stroke="black" stroke-dasharray="5,2" d="M421,-187.11C421,-187.11 421,-205.99 421,-205.99"/>
<polygon fill="black" stroke="black" points="417.5,-205.99 421,-215.99 424.5,-205.99 417.5,-205.99"/>
</g>
<!-- MessageSearchComponent  -->
<g id="node9" class="node">
<title>MessageSearchComponent </title>
<polygon fill="#fb8072" stroke="black" points="324.9,-252 153.1,-252 153.1,-216 324.9,-216 324.9,-252"/>
<text text-anchor="middle" x="239" y="-229.8" font-family="Times,serif" font-size="14.00">MessageSearchComponent </text>
</g>
<!-- MessageModule&#45;&gt;MessageSearchComponent  -->
<g id="edge8" class="edge">
<title>MessageModule&#45;&gt;MessageSearchComponent </title>
<path fill="none" stroke="black" stroke-dasharray="5,2" d="M366.72,-178C342.61,-178 319.57,-178 319.57,-178 319.57,-178 319.57,-205.97 319.57,-205.97"/>
<polygon fill="black" stroke="black" points="316.07,-205.97 319.57,-215.97 323.07,-205.97 316.07,-205.97"/>
</g>
<!-- SharedModule -->
<g id="node6" class="node">
<title>SharedModule</title>
<polygon fill="#8dd3c7" stroke="black" points="122.42,-122 119.42,-126 98.42,-126 95.42,-122 23.58,-122 23.58,-86 122.42,-86 122.42,-122"/>
<text text-anchor="middle" x="73" y="-99.8" font-family="Times,serif" font-size="14.00">SharedModule</text>
</g>
<!-- SharedModule&#45;&gt;MessageModule -->
<g id="edge5" class="edge">
<title>SharedModule&#45;&gt;MessageModule</title>
<path fill="none" stroke="black" d="M73,-122.11C73,-141.34 73,-169 73,-169 73,-169 356.62,-169 356.62,-169"/>
<polygon fill="black" stroke="black" points="356.63,-172.5 366.62,-169 356.62,-165.5 356.63,-172.5"/>
</g>
</g>
</svg>
