<?xml version="1.0" encoding="UTF-8" standalone="no"?>
<!DOCTYPE svg PUBLIC "-//W3C//DTD SVG 1.1//EN"
 "http://www.w3.org/Graphics/SVG/1.1/DTD/svg11.dtd">
<!-- Generated by graphviz version 2.47.0 (20210316.0004)
 -->
<!-- Title: dependencies Pages: 1 -->
<svg width="4375pt" height="290pt"
 viewBox="0.00 0.00 4375.00 290.00" xmlns="http://www.w3.org/2000/svg" xmlns:xlink="http://www.w3.org/1999/xlink">
<g id="graph0" class="graph" transform="scale(1 1) rotate(0) translate(4 286)">
<title>dependencies</title>
<polygon fill="white" stroke="transparent" points="-4,4 -4,-286 4371,-286 4371,4 -4,4"/>
<text text-anchor="start" x="2162.51" y="-42.4" font-family="Times-12" font-weight="bold" font-size="14.00">Legend</text>
<polygon fill="#ffffb3" stroke="transparent" points="1949.5,-10 1949.5,-30 1969.5,-30 1969.5,-10 1949.5,-10"/>
<text text-anchor="start" x="1973.13" y="-15.4" font-family="Times-12" font-size="14.00"> &#160;Declarations</text>
<polygon fill="#8dd3c7" stroke="transparent" points="2062.5,-10 2062.5,-30 2082.5,-30 2082.5,-10 2062.5,-10"/>
<text text-anchor="start" x="2086.23" y="-15.4" font-family="Times-12" font-size="14.00"> &#160;Module</text>
<polygon fill="#80b1d3" stroke="transparent" points="2148.5,-10 2148.5,-30 2168.5,-30 2168.5,-10 2148.5,-10"/>
<text text-anchor="start" x="2172.28" y="-15.4" font-family="Times-12" font-size="14.00"> &#160;Bootstrap</text>
<polygon fill="#fdb462" stroke="transparent" points="2245.5,-10 2245.5,-30 2265.5,-30 2265.5,-10 2245.5,-10"/>
<text text-anchor="start" x="2269.17" y="-15.4" font-family="Times-12" font-size="14.00"> &#160;Providers</text>
<polygon fill="#fb8072" stroke="transparent" points="2341.5,-10 2341.5,-30 2361.5,-30 2361.5,-10 2341.5,-10"/>
<text text-anchor="start" x="2365.23" y="-15.4" font-family="Times-12" font-size="14.00"> &#160;Exports</text>
<g id="clust1" class="cluster">
<title>cluster_AppModule</title>
<polygon fill="none" stroke="black" stroke-dasharray="1,5" points="1088,-70 1088,-274 1495,-274 1495,-70 1088,-70"/>
</g>
<g id="clust2" class="cluster">
<title>cluster_AppModule_declarations</title>
<polygon fill="none" stroke="black" points="1365,-78 1365,-130 1487,-130 1487,-78 1365,-78"/>
</g>
<g id="clust4" class="cluster">
<title>cluster_AppModule_imports</title>
<polygon fill="none" stroke="black" points="1096,-78 1096,-130 1357,-130 1357,-78 1096,-78"/>
</g>
<g id="clust6" class="cluster">
<title>cluster_AppModule_bootstrap</title>
<polygon fill="none" stroke="black" points="1223,-214 1223,-266 1347,-266 1347,-214 1223,-214"/>
</g>
<g id="clust14" class="cluster">
<title>cluster_BaseModule</title>
<polygon fill="none" stroke="black" stroke-dasharray="1,5" points="3211,-70 3211,-274 4201,-274 4201,-70 3211,-70"/>
</g>
<g id="clust15" class="cluster">
<title>cluster_BaseModule_declarations</title>
<polygon fill="none" stroke="black" points="3357,-78 3357,-130 4193,-130 4193,-78 3357,-78"/>
</g>
<g id="clust21" class="cluster">
<title>cluster_BaseModule_imports</title>
<polygon fill="none" stroke="black" points="3219,-78 3219,-130 3349,-130 3349,-78 3219,-78"/>
</g>
<g id="clust22" class="cluster">
<title>cluster_BaseModule_exports</title>
<polygon fill="none" stroke="black" points="3278,-214 3278,-266 4133,-266 4133,-214 3278,-214"/>
</g>
<g id="clust25" class="cluster">
<title>cluster_CoreModule</title>
<polygon fill="none" stroke="black" stroke-dasharray="1,5" points="4209,-70 4209,-198 4359,-198 4359,-70 4209,-70"/>
</g>
<g id="clust30" class="cluster">
<title>cluster_CoreModule_providers</title>
<polygon fill="none" stroke="black" points="4217,-78 4217,-130 4351,-130 4351,-78 4217,-78"/>
</g>
<g id="clust31" class="cluster">
<title>cluster_LayoutModule</title>
<polygon fill="none" stroke="black" stroke-dasharray="1,5" points="698,-146 698,-198 814,-198 814,-146 698,-146"/>
</g>
<g id="clust37" class="cluster">
<title>cluster_MessageModule</title>
<polygon fill="none" stroke="black" stroke-dasharray="1,5" points="1503,-70 1503,-274 2248,-274 2248,-70 1503,-70"/>
</g>
<g id="clust38" class="cluster">
<title>cluster_MessageModule_declarations</title>
<polygon fill="none" stroke="black" points="1511,-78 1511,-130 2240,-130 2240,-78 1511,-78"/>
</g>
<g id="clust44" class="cluster">
<title>cluster_MessageModule_exports</title>
<polygon fill="none" stroke="black" points="1511,-214 1511,-266 2055,-266 2055,-214 1511,-214"/>
</g>
<g id="clust53" class="cluster">
<title>cluster_NotificationModule</title>
<polygon fill="none" stroke="black" stroke-dasharray="1,5" points="2256,-70 2256,-274 2440,-274 2440,-70 2256,-70"/>
</g>
<g id="clust54" class="cluster">
<title>cluster_NotificationModule_declarations</title>
<polygon fill="none" stroke="black" points="2265,-78 2265,-130 2429,-130 2429,-78 2265,-78"/>
</g>
<g id="clust57" class="cluster">
<title>cluster_NotificationModule_exports</title>
<polygon fill="none" stroke="black" points="2264,-214 2264,-266 2432,-266 2432,-214 2264,-214"/>
</g>
<g id="clust60" class="cluster">
<title>cluster_SharedModule</title>
<polygon fill="none" stroke="black" stroke-dasharray="1,5" points="822,-138 822,-206 1080,-206 1080,-138 822,-138"/>
</g>
<g id="clust63" class="cluster">
<title>cluster_SharedModule_exports</title>
<polygon fill="none" stroke="black" points="830,-146 830,-198 1072,-198 1072,-146 830,-146"/>
</g>
<g id="clust66" class="cluster">
<title>cluster_UserModule</title>
<polygon fill="none" stroke="black" stroke-dasharray="1,5" points="2448,-70 2448,-274 3203,-274 3203,-70 2448,-70"/>
</g>
<g id="clust67" class="cluster">
<title>cluster_UserModule_declarations</title>
<polygon fill="none" stroke="black" points="2459,-78 2459,-130 3182,-130 3182,-78 2459,-78"/>
</g>
<g id="clust73" class="cluster">
<title>cluster_UserModule_exports</title>
<polygon fill="none" stroke="black" points="2456,-214 2456,-266 3195,-266 3195,-214 2456,-214"/>
</g>
<g id="clust76" class="cluster">
<title>cluster_ViewModule</title>
<polygon fill="none" stroke="black" stroke-dasharray="1,5" points="8,-138 8,-266 690,-266 690,-138 8,-138"/>
</g>
<g id="clust77" class="cluster">
<title>cluster_ViewModule_declarations</title>
<polygon fill="none" stroke="black" points="174,-146 174,-198 682,-198 682,-146 174,-146"/>
</g>
<g id="clust81" class="cluster">
<title>cluster_ViewModule_imports</title>
<polygon fill="none" stroke="black" points="16,-146 16,-198 166,-198 166,-146 16,-146"/>
</g>
<!-- AppComponent -->
<g id="node1" class="node">
<title>AppComponent</title>
<polygon fill="#ffffb3" stroke="black" points="1478.94,-122 1373.06,-122 1373.06,-86 1478.94,-86 1478.94,-122"/>
<text text-anchor="middle" x="1426" y="-99.8" font-family="Times,serif" font-size="14.00">AppComponent</text>
</g>
<!-- AppModule -->
<g id="node2" class="node">
<title>AppModule</title>
<polygon fill="#8dd3c7" stroke="black" points="1326.66,-190 1323.66,-194 1302.66,-194 1299.66,-190 1243.34,-190 1243.34,-154 1326.66,-154 1326.66,-190"/>
<text text-anchor="middle" x="1285" y="-167.8" font-family="Times,serif" font-size="14.00">AppModule</text>
</g>
<!-- AppComponent&#45;&gt;AppModule -->
<g id="edge1" class="edge">
<title>AppComponent&#45;&gt;AppModule</title>
<path fill="none" stroke="black" d="M1426,-122.25C1426,-145.02 1426,-181 1426,-181 1426,-181 1336.92,-181 1336.92,-181"/>
<polygon fill="black" stroke="black" points="1336.92,-177.5 1326.92,-181 1336.92,-184.5 1336.92,-177.5"/>
</g>
<!-- AppComponent  -->
<g id="node5" class="node">
<title>AppComponent </title>
<polygon fill="#80b1d3" stroke="black" points="1339.44,-258 1230.56,-258 1230.56,-222 1339.44,-222 1339.44,-258"/>
<text text-anchor="middle" x="1285" y="-235.8" font-family="Times,serif" font-size="14.00">AppComponent </text>
</g>
<!-- AppModule&#45;&gt;AppComponent  -->
<g id="edge4" class="edge">
<title>AppModule&#45;&gt;AppComponent </title>
<path fill="none" stroke="black" stroke-dasharray="1,5" d="M1285,-190.22C1285,-190.22 1285,-211.73 1285,-211.73"/>
<polygon fill="black" stroke="black" points="1281.5,-211.73 1285,-221.73 1288.5,-211.73 1281.5,-211.73"/>
</g>
<!-- AppRoutingModule -->
<g id="node3" class="node">
<title>AppRoutingModule</title>
<polygon fill="#8dd3c7" stroke="black" points="1349.27,-122 1346.27,-126 1325.27,-126 1322.27,-122 1220.73,-122 1220.73,-86 1349.27,-86 1349.27,-122"/>
<text text-anchor="middle" x="1285" y="-99.8" font-family="Times,serif" font-size="14.00">AppRoutingModule</text>
</g>
<!-- AppRoutingModule&#45;&gt;AppModule -->
<g id="edge2" class="edge">
<title>AppRoutingModule&#45;&gt;AppModule</title>
<path fill="none" stroke="black" d="M1285,-122.22C1285,-122.22 1285,-143.73 1285,-143.73"/>
<polygon fill="black" stroke="black" points="1281.5,-143.73 1285,-153.73 1288.5,-143.73 1281.5,-143.73"/>
</g>
<!-- SharedModule -->
<g id="node4" class="node">
<title>SharedModule</title>
<polygon fill="#8dd3c7" stroke="black" points="1202.42,-122 1199.42,-126 1178.42,-126 1175.42,-122 1103.58,-122 1103.58,-86 1202.42,-86 1202.42,-122"/>
<text text-anchor="middle" x="1153" y="-99.8" font-family="Times,serif" font-size="14.00">SharedModule</text>
</g>
<!-- SharedModule&#45;&gt;AppModule -->
<g id="edge3" class="edge">
<title>SharedModule&#45;&gt;AppModule</title>
<path fill="none" stroke="black" d="M1182.53,-122.22C1182.53,-142.37 1182.53,-172 1182.53,-172 1182.53,-172 1233.32,-172 1233.32,-172"/>
<polygon fill="black" stroke="black" points="1233.32,-175.5 1243.32,-172 1233.32,-168.5 1233.32,-175.5"/>
</g>
<!-- LayoutModule -->
<g id="node20" class="node">
<title>LayoutModule</title>
<polygon fill="#8dd3c7" stroke="black" points="805.71,-190 802.71,-194 781.71,-194 778.71,-190 706.29,-190 706.29,-154 805.71,-154 805.71,-190"/>
<text text-anchor="middle" x="756" y="-167.8" font-family="Times,serif" font-size="14.00">LayoutModule</text>
</g>
<!-- SharedModule&#45;&gt;LayoutModule -->
<g id="edge17" class="edge">
<title>SharedModule&#45;&gt;LayoutModule</title>
<path fill="none" stroke="black" d="M1103.52,-101C997.1,-101 756,-101 756,-101 756,-101 756,-143.72 756,-143.72"/>
<polygon fill="black" stroke="black" points="752.5,-143.72 756,-153.72 759.5,-143.72 752.5,-143.72"/>
</g>
<!-- MessageModule -->
<g id="node25" class="node">
<title>MessageModule</title>
<polygon fill="#8dd3c7" stroke="black" points="1832.03,-190 1829.03,-194 1808.03,-194 1805.03,-190 1723.97,-190 1723.97,-154 1832.03,-154 1832.03,-190"/>
<text text-anchor="middle" x="1778" y="-167.8" font-family="Times,serif" font-size="14.00">MessageModule</text>
</g>
<!-- SharedModule&#45;&gt;MessageModule -->
<g id="edge22" class="edge">
<title>SharedModule&#45;&gt;MessageModule</title>
<path fill="none" stroke="black" d="M1123.47,-122.06C1123.47,-133.44 1123.47,-146 1123.47,-146 1123.47,-146 1759.91,-146 1759.91,-146 1759.91,-146 1759.91,-146.79 1759.91,-146.79"/>
<polygon fill="black" stroke="black" points="1756.41,-143.94 1759.91,-153.94 1763.41,-143.94 1756.41,-143.94"/>
</g>
<!-- NotificationModule -->
<g id="node30" class="node">
<title>NotificationModule</title>
<polygon fill="#8dd3c7" stroke="black" points="2410.7,-190 2407.7,-194 2386.7,-194 2383.7,-190 2283.3,-190 2283.3,-154 2410.7,-154 2410.7,-190"/>
<text text-anchor="middle" x="2347" y="-167.8" font-family="Times,serif" font-size="14.00">NotificationModule</text>
</g>
<!-- SharedModule&#45;&gt;NotificationModule -->
<g id="edge27" class="edge">
<title>SharedModule&#45;&gt;NotificationModule</title>
<path fill="none" stroke="black" d="M1143.16,-122.19C1143.16,-130.28 1143.16,-138 1143.16,-138 1143.16,-138 2325.8,-138 2325.8,-138 2325.8,-138 2325.8,-143.81 2325.8,-143.81"/>
<polygon fill="black" stroke="black" points="2322.3,-143.81 2325.8,-153.81 2329.3,-143.81 2322.3,-143.81"/>
</g>
<!-- BaseModule  -->
<g id="node32" class="node">
<title>BaseModule </title>
<polygon fill="#fb8072" stroke="black" points="1064.26,-190 973.74,-190 973.74,-154 1064.26,-154 1064.26,-190"/>
<text text-anchor="middle" x="1019" y="-167.8" font-family="Times,serif" font-size="14.00">BaseModule </text>
</g>
<!-- SharedModule&#45;&gt;BaseModule  -->
<g id="edge29" class="edge">
<title>SharedModule&#45;&gt;BaseModule </title>
<path fill="none" stroke="black" stroke-dasharray="5,2" d="M1103.48,-115C1065.31,-115 1019,-115 1019,-115 1019,-115 1019,-143.96 1019,-143.96"/>
<polygon fill="black" stroke="black" points="1015.5,-143.96 1019,-153.96 1022.5,-143.96 1015.5,-143.96"/>
</g>
<!-- NgExportModule  -->
<g id="node33" class="node">
<title>NgExportModule </title>
<polygon fill="#fb8072" stroke="black" points="956.26,-190 837.74,-190 837.74,-154 956.26,-154 956.26,-190"/>
<text text-anchor="middle" x="897" y="-167.8" font-family="Times,serif" font-size="14.00">NgExportModule </text>
</g>
<!-- SharedModule&#45;&gt;NgExportModule  -->
<g id="edge30" class="edge">
<title>SharedModule&#45;&gt;NgExportModule </title>
<path fill="none" stroke="black" stroke-dasharray="5,2" d="M1103.64,-108C1029.25,-108 897,-108 897,-108 897,-108 897,-143.83 897,-143.83"/>
<polygon fill="black" stroke="black" points="893.5,-143.83 897,-153.83 900.5,-143.83 893.5,-143.83"/>
</g>
<!-- UserModule -->
<g id="node38" class="node">
<title>UserModule</title>
<polygon fill="#8dd3c7" stroke="black" points="2777.98,-190 2774.98,-194 2753.98,-194 2750.98,-190 2692.02,-190 2692.02,-154 2777.98,-154 2777.98,-190"/>
<text text-anchor="middle" x="2735" y="-167.8" font-family="Times,serif" font-size="14.00">UserModule</text>
</g>
<!-- SharedModule&#45;&gt;UserModule -->
<g id="edge35" class="edge">
<title>SharedModule&#45;&gt;UserModule</title>
<path fill="none" stroke="black" d="M1162.84,-122.06C1162.84,-126.49 1162.84,-130 1162.84,-130 1162.84,-130 2720.67,-130 2720.67,-130 2720.67,-130 2720.67,-143.94 2720.67,-143.94"/>
<polygon fill="black" stroke="black" points="2717.17,-143.94 2720.67,-153.94 2724.17,-143.94 2717.17,-143.94"/>
</g>
<!-- ViewModule -->
<g id="node46" class="node">
<title>ViewModule</title>
<polygon fill="#8dd3c7" stroke="black" points="391.87,-258 388.87,-262 367.87,-262 364.87,-258 302.13,-258 302.13,-222 391.87,-222 391.87,-258"/>
<text text-anchor="middle" x="347" y="-235.8" font-family="Times,serif" font-size="14.00">ViewModule</text>
</g>
<!-- SharedModule&#45;&gt;ViewModule -->
<g id="edge44" class="edge">
<title>SharedModule&#45;&gt;ViewModule</title>
<path fill="none" stroke="black" d="M1103.75,-94C929.3,-94 351.19,-94 351.19,-94 351.19,-94 351.19,-211.8 351.19,-211.8"/>
<polygon fill="black" stroke="black" points="347.69,-211.8 351.19,-221.8 354.69,-211.8 347.69,-211.8"/>
</g>
<!-- BaseButtonComponent -->
<g id="node6" class="node">
<title>BaseButtonComponent</title>
<polygon fill="#ffffb3" stroke="black" points="3693.16,-122 3546.84,-122 3546.84,-86 3693.16,-86 3693.16,-122"/>
<text text-anchor="middle" x="3620" y="-99.8" font-family="Times,serif" font-size="14.00">BaseButtonComponent</text>
</g>
<!-- BaseModule -->
<g id="node11" class="node">
<title>BaseModule</title>
<polygon fill="#8dd3c7" stroke="black" points="3740.26,-190 3737.26,-194 3716.26,-194 3713.26,-190 3653.74,-190 3653.74,-154 3740.26,-154 3740.26,-190"/>
<text text-anchor="middle" x="3697" y="-167.8" font-family="Times,serif" font-size="14.00">BaseModule</text>
</g>
<!-- BaseButtonComponent&#45;&gt;BaseModule -->
<g id="edge5" class="edge">
<title>BaseButtonComponent&#45;&gt;BaseModule</title>
<path fill="none" stroke="black" d="M3673.48,-122.22C3673.48,-122.22 3673.48,-143.73 3673.48,-143.73"/>
<polygon fill="black" stroke="black" points="3669.98,-143.73 3673.48,-153.73 3676.98,-143.73 3669.98,-143.73"/>
</g>
<!-- BaseContainerComponent -->
<g id="node7" class="node">
<title>BaseContainerComponent</title>
<polygon fill="#ffffb3" stroke="black" points="3528.75,-122 3365.25,-122 3365.25,-86 3528.75,-86 3528.75,-122"/>
<text text-anchor="middle" x="3447" y="-99.8" font-family="Times,serif" font-size="14.00">BaseContainerComponent</text>
</g>
<!-- BaseContainerComponent&#45;&gt;BaseModule -->
<g id="edge6" class="edge">
<title>BaseContainerComponent&#45;&gt;BaseModule</title>
<path fill="none" stroke="black" d="M3490.32,-122.28C3490.32,-137.95 3490.32,-158 3490.32,-158 3490.32,-158 3643.67,-158 3643.67,-158"/>
<polygon fill="black" stroke="black" points="3643.67,-161.5 3653.67,-158 3643.67,-154.5 3643.67,-161.5"/>
</g>
<!-- BaseFooterComponent -->
<g id="node8" class="node">
<title>BaseFooterComponent</title>
<polygon fill="#ffffb3" stroke="black" points="4184.59,-122 4039.41,-122 4039.41,-86 4184.59,-86 4184.59,-122"/>
<text text-anchor="middle" x="4112" y="-99.8" font-family="Times,serif" font-size="14.00">BaseFooterComponent</text>
</g>
<!-- BaseFooterComponent&#45;&gt;BaseModule -->
<g id="edge7" class="edge">
<title>BaseFooterComponent&#45;&gt;BaseModule</title>
<path fill="none" stroke="black" d="M4082.27,-122.11C4082.27,-141.34 4082.27,-169 4082.27,-169 4082.27,-169 3750.45,-169 3750.45,-169"/>
<polygon fill="black" stroke="black" points="3750.45,-165.5 3740.45,-169 3750.45,-172.5 3750.45,-165.5"/>
</g>
<!-- BaseHeaderComponent -->
<g id="node9" class="node">
<title>BaseHeaderComponent</title>
<polygon fill="#ffffb3" stroke="black" points="4021.45,-122 3872.55,-122 3872.55,-86 4021.45,-86 4021.45,-122"/>
<text text-anchor="middle" x="3947" y="-99.8" font-family="Times,serif" font-size="14.00">BaseHeaderComponent</text>
</g>
<!-- BaseHeaderComponent&#45;&gt;BaseModule -->
<g id="edge8" class="edge">
<title>BaseHeaderComponent&#45;&gt;BaseModule</title>
<path fill="none" stroke="black" d="M3914.57,-122.03C3914.57,-139.06 3914.57,-162 3914.57,-162 3914.57,-162 3750.51,-162 3750.51,-162"/>
<polygon fill="black" stroke="black" points="3750.51,-158.5 3740.51,-162 3750.51,-165.5 3750.51,-158.5"/>
</g>
<!-- BaseImageComponent -->
<g id="node10" class="node">
<title>BaseImageComponent</title>
<polygon fill="#ffffb3" stroke="black" points="3854.52,-122 3711.48,-122 3711.48,-86 3854.52,-86 3854.52,-122"/>
<text text-anchor="middle" x="3783" y="-99.8" font-family="Times,serif" font-size="14.00">BaseImageComponent</text>
</g>
<!-- BaseImageComponent&#45;&gt;BaseModule -->
<g id="edge9" class="edge">
<title>BaseImageComponent&#45;&gt;BaseModule</title>
<path fill="none" stroke="black" d="M3725.81,-122.22C3725.81,-122.22 3725.81,-143.73 3725.81,-143.73"/>
<polygon fill="black" stroke="black" points="3722.31,-143.73 3725.81,-153.73 3729.31,-143.73 3722.31,-143.73"/>
</g>
<!-- BaseButtonComponent  -->
<g id="node13" class="node">
<title>BaseButtonComponent </title>
<polygon fill="#fb8072" stroke="black" points="4125.16,-258 3974.84,-258 3974.84,-222 4125.16,-222 4125.16,-258"/>
<text text-anchor="middle" x="4050" y="-235.8" font-family="Times,serif" font-size="14.00">BaseButtonComponent </text>
</g>
<!-- BaseModule&#45;&gt;BaseButtonComponent  -->
<g id="edge11" class="edge">
<title>BaseModule&#45;&gt;BaseButtonComponent </title>
<path fill="none" stroke="black" stroke-dasharray="5,2" d="M3740.48,-176C3823.89,-176 3998.2,-176 3998.2,-176 3998.2,-176 3998.2,-211.83 3998.2,-211.83"/>
<polygon fill="black" stroke="black" points="3994.7,-211.83 3998.2,-221.83 4001.7,-211.83 3994.7,-211.83"/>
</g>
<!-- BaseContainerComponent  -->
<g id="node14" class="node">
<title>BaseContainerComponent </title>
<polygon fill="#fb8072" stroke="black" points="3956.75,-258 3789.25,-258 3789.25,-222 3956.75,-222 3956.75,-258"/>
<text text-anchor="middle" x="3873" y="-235.8" font-family="Times,serif" font-size="14.00">BaseContainerComponent </text>
</g>
<!-- BaseModule&#45;&gt;BaseContainerComponent  -->
<g id="edge12" class="edge">
<title>BaseModule&#45;&gt;BaseContainerComponent </title>
<path fill="none" stroke="black" stroke-dasharray="5,2" d="M3740.39,-183C3776.51,-183 3822.07,-183 3822.07,-183 3822.07,-183 3822.07,-211.96 3822.07,-211.96"/>
<polygon fill="black" stroke="black" points="3818.57,-211.96 3822.07,-221.96 3825.57,-211.96 3818.57,-211.96"/>
</g>
<!-- BaseFooterComponent  -->
<g id="node15" class="node">
<title>BaseFooterComponent </title>
<polygon fill="#fb8072" stroke="black" points="3771.09,-258 3622.91,-258 3622.91,-222 3771.09,-222 3771.09,-258"/>
<text text-anchor="middle" x="3697" y="-235.8" font-family="Times,serif" font-size="14.00">BaseFooterComponent </text>
</g>
<!-- BaseModule&#45;&gt;BaseFooterComponent  -->
<g id="edge13" class="edge">
<title>BaseModule&#45;&gt;BaseFooterComponent </title>
<path fill="none" stroke="black" stroke-dasharray="5,2" d="M3697,-190.22C3697,-190.22 3697,-211.73 3697,-211.73"/>
<polygon fill="black" stroke="black" points="3693.5,-211.73 3697,-221.73 3700.5,-211.73 3693.5,-211.73"/>
</g>
<!-- BaseHeaderComponent  -->
<g id="node16" class="node">
<title>BaseHeaderComponent </title>
<polygon fill="#fb8072" stroke="black" points="3604.45,-258 3451.55,-258 3451.55,-222 3604.45,-222 3604.45,-258"/>
<text text-anchor="middle" x="3528" y="-235.8" font-family="Times,serif" font-size="14.00">BaseHeaderComponent </text>
</g>
<!-- BaseModule&#45;&gt;BaseHeaderComponent  -->
<g id="edge14" class="edge">
<title>BaseModule&#45;&gt;BaseHeaderComponent </title>
<path fill="none" stroke="black" stroke-dasharray="5,2" d="M3653.46,-186C3618.58,-186 3575.45,-186 3575.45,-186 3575.45,-186 3575.45,-211.72 3575.45,-211.72"/>
<polygon fill="black" stroke="black" points="3571.95,-211.72 3575.45,-221.72 3578.95,-211.72 3571.95,-211.72"/>
</g>
<!-- BaseImageComponent  -->
<g id="node17" class="node">
<title>BaseImageComponent </title>
<polygon fill="#fb8072" stroke="black" points="3433.52,-258 3286.48,-258 3286.48,-222 3433.52,-222 3433.52,-258"/>
<text text-anchor="middle" x="3360" y="-235.8" font-family="Times,serif" font-size="14.00">BaseImageComponent </text>
</g>
<!-- BaseModule&#45;&gt;BaseImageComponent  -->
<g id="edge15" class="edge">
<title>BaseModule&#45;&gt;BaseImageComponent </title>
<path fill="none" stroke="black" stroke-dasharray="5,2" d="M3653.71,-166C3571.15,-166 3399.32,-166 3399.32,-166 3399.32,-166 3399.32,-211.71 3399.32,-211.71"/>
<polygon fill="black" stroke="black" points="3395.82,-211.71 3399.32,-221.71 3402.82,-211.71 3395.82,-211.71"/>
</g>
<!-- NgExportModule -->
<g id="node12" class="node">
<title>NgExportModule</title>
<polygon fill="#8dd3c7" stroke="black" points="3341.26,-122 3338.26,-126 3317.26,-126 3314.26,-122 3226.74,-122 3226.74,-86 3341.26,-86 3341.26,-122"/>
<text text-anchor="middle" x="3284" y="-99.8" font-family="Times,serif" font-size="14.00">NgExportModule</text>
</g>
<!-- NgExportModule&#45;&gt;BaseModule -->
<g id="edge10" class="edge">
<title>NgExportModule&#45;&gt;BaseModule</title>
<path fill="none" stroke="black" d="M3313.93,-122.03C3313.93,-139.06 3313.93,-162 3313.93,-162 3313.93,-162 3643.43,-162 3643.43,-162"/>
<polygon fill="black" stroke="black" points="3643.43,-165.5 3653.43,-162 3643.43,-158.5 3643.43,-165.5"/>
</g>
<!-- AuthService -->
<g id="node18" class="node">
<title>AuthService</title>
<ellipse fill="#fdb462" stroke="black" cx="4284" cy="-104" rx="59.11" ry="18"/>
<text text-anchor="middle" x="4284" y="-99.8" font-family="Times,serif" font-size="14.00">AuthService</text>
</g>
<!-- CoreModule -->
<g id="node19" class="node">
<title>CoreModule</title>
<polygon fill="#8dd3c7" stroke="black" points="4327.26,-190 4324.26,-194 4303.26,-194 4300.26,-190 4240.74,-190 4240.74,-154 4327.26,-154 4327.26,-190"/>
<text text-anchor="middle" x="4284" y="-167.8" font-family="Times,serif" font-size="14.00">CoreModule</text>
</g>
<!-- AuthService&#45;&gt;CoreModule -->
<g id="edge16" class="edge">
<title>AuthService&#45;&gt;CoreModule</title>
<path fill="none" stroke="black" d="M4284,-122.22C4284,-122.22 4284,-143.73 4284,-143.73"/>
<polygon fill="black" stroke="black" points="4280.5,-143.73 4284,-153.73 4287.5,-143.73 4280.5,-143.73"/>
</g>
<!-- LayoutModule&#45;&gt;ViewModule -->
<g id="edge43" class="edge">
<title>LayoutModule&#45;&gt;ViewModule</title>
<path fill="none" stroke="black" d="M756,-190.29C756,-212.21 756,-246 756,-246 756,-246 401.94,-246 401.94,-246"/>
<polygon fill="black" stroke="black" points="401.94,-242.5 391.94,-246 401.94,-249.5 401.94,-242.5"/>
</g>
<!-- MessageFormComponent -->
<g id="node21" class="node">
<title>MessageFormComponent</title>
<polygon fill="#ffffb3" stroke="black" points="1849.14,-122 1688.86,-122 1688.86,-86 1849.14,-86 1849.14,-122"/>
<text text-anchor="middle" x="1769" y="-99.8" font-family="Times,serif" font-size="14.00">MessageFormComponent</text>
</g>
<!-- MessageFormComponent&#45;&gt;MessageModule -->
<g id="edge18" class="edge">
<title>MessageFormComponent&#45;&gt;MessageModule</title>
<path fill="none" stroke="black" d="M1796.09,-122.22C1796.09,-122.22 1796.09,-143.73 1796.09,-143.73"/>
<polygon fill="black" stroke="black" points="1792.59,-143.73 1796.09,-153.73 1799.59,-143.73 1792.59,-143.73"/>
</g>
<!-- MessageListComponent -->
<g id="node22" class="node">
<title>MessageListComponent</title>
<polygon fill="#ffffb3" stroke="black" points="1671.09,-122 1518.91,-122 1518.91,-86 1671.09,-86 1671.09,-122"/>
<text text-anchor="middle" x="1595" y="-99.8" font-family="Times,serif" font-size="14.00">MessageListComponent</text>
</g>
<!-- MessageListComponent&#45;&gt;MessageModule -->
<g id="edge19" class="edge">
<title>MessageListComponent&#45;&gt;MessageModule</title>
<path fill="none" stroke="black" d="M1595.05,-122.02C1595.05,-139.37 1595.05,-163 1595.05,-163 1595.05,-163 1713.6,-163 1713.6,-163"/>
<polygon fill="black" stroke="black" points="1713.6,-166.5 1723.6,-163 1713.6,-159.5 1713.6,-166.5"/>
</g>
<!-- MessageListItemComponent -->
<g id="node23" class="node">
<title>MessageListItemComponent</title>
<polygon fill="#ffffb3" stroke="black" points="2231.74,-122 2054.26,-122 2054.26,-86 2231.74,-86 2231.74,-122"/>
<text text-anchor="middle" x="2143" y="-99.8" font-family="Times,serif" font-size="14.00">MessageListItemComponent</text>
</g>
<!-- MessageListItemComponent&#45;&gt;MessageModule -->
<g id="edge20" class="edge">
<title>MessageListItemComponent&#45;&gt;MessageModule</title>
<path fill="none" stroke="black" d="M2143,-122.22C2143,-142.37 2143,-172 2143,-172 2143,-172 1842.25,-172 1842.25,-172"/>
<polygon fill="black" stroke="black" points="1842.25,-168.5 1832.25,-172 1842.25,-175.5 1842.25,-168.5"/>
</g>
<!-- MessageSearchComponent -->
<g id="node24" class="node">
<title>MessageSearchComponent</title>
<polygon fill="#ffffb3" stroke="black" points="2036.4,-122 1867.6,-122 1867.6,-86 2036.4,-86 2036.4,-122"/>
<text text-anchor="middle" x="1952" y="-99.8" font-family="Times,serif" font-size="14.00">MessageSearchComponent</text>
</g>
<!-- MessageSearchComponent&#45;&gt;MessageModule -->
<g id="edge21" class="edge">
<title>MessageSearchComponent&#45;&gt;MessageModule</title>
<path fill="none" stroke="black" d="M1875.36,-122.02C1875.36,-139.37 1875.36,-163 1875.36,-163 1875.36,-163 1842.09,-163 1842.09,-163"/>
<polygon fill="black" stroke="black" points="1842.09,-159.5 1832.09,-163 1842.09,-166.5 1842.09,-159.5"/>
</g>
<!-- MessageFormComponent  -->
<g id="node26" class="node">
<title>MessageFormComponent </title>
<polygon fill="#fb8072" stroke="black" points="2047.14,-258 1882.86,-258 1882.86,-222 2047.14,-222 2047.14,-258"/>
<text text-anchor="middle" x="1965" y="-235.8" font-family="Times,serif" font-size="14.00">MessageFormComponent </text>
</g>
<!-- MessageModule&#45;&gt;MessageFormComponent  -->
<g id="edge23" class="edge">
<title>MessageModule&#45;&gt;MessageFormComponent </title>
<path fill="none" stroke="black" stroke-dasharray="5,2" d="M1832.47,-181C1885.96,-181 1959.56,-181 1959.56,-181 1959.56,-181 1959.56,-211.98 1959.56,-211.98"/>
<polygon fill="black" stroke="black" points="1956.06,-211.98 1959.56,-221.98 1963.06,-211.98 1956.06,-211.98"/>
</g>
<!-- MessageListComponent  -->
<g id="node27" class="node">
<title>MessageListComponent </title>
<polygon fill="#fb8072" stroke="black" points="1864.59,-258 1709.41,-258 1709.41,-222 1864.59,-222 1864.59,-258"/>
<text text-anchor="middle" x="1787" y="-235.8" font-family="Times,serif" font-size="14.00">MessageListComponent </text>
</g>
<!-- MessageModule&#45;&gt;MessageListComponent  -->
<g id="edge24" class="edge">
<title>MessageModule&#45;&gt;MessageListComponent </title>
<path fill="none" stroke="black" stroke-dasharray="5,2" d="M1778,-190.22C1778,-190.22 1778,-211.73 1778,-211.73"/>
<polygon fill="black" stroke="black" points="1774.5,-211.73 1778,-221.73 1781.5,-211.73 1774.5,-211.73"/>
</g>
<!-- MessageSearchComponent  -->
<g id="node28" class="node">
<title>MessageSearchComponent </title>
<polygon fill="#fb8072" stroke="black" points="1690.9,-258 1519.1,-258 1519.1,-222 1690.9,-222 1690.9,-258"/>
<text text-anchor="middle" x="1605" y="-235.8" font-family="Times,serif" font-size="14.00">MessageSearchComponent </text>
</g>
<!-- MessageModule&#45;&gt;MessageSearchComponent  -->
<g id="edge25" class="edge">
<title>MessageModule&#45;&gt;MessageSearchComponent </title>
<path fill="none" stroke="black" stroke-dasharray="5,2" d="M1723.76,-172C1701.07,-172 1679.86,-172 1679.86,-172 1679.86,-172 1679.86,-211.78 1679.86,-211.78"/>
<polygon fill="black" stroke="black" points="1676.36,-211.78 1679.86,-221.78 1683.36,-211.78 1676.36,-211.78"/>
</g>
<!-- NotificationComponent -->
<g id="node29" class="node">
<title>NotificationComponent</title>
<polygon fill="#ffffb3" stroke="black" points="2421.48,-122 2272.52,-122 2272.52,-86 2421.48,-86 2421.48,-122"/>
<text text-anchor="middle" x="2347" y="-99.8" font-family="Times,serif" font-size="14.00">NotificationComponent</text>
</g>
<!-- NotificationComponent&#45;&gt;NotificationModule -->
<g id="edge26" class="edge">
<title>NotificationComponent&#45;&gt;NotificationModule</title>
<path fill="none" stroke="black" d="M2368.2,-122.22C2368.2,-122.22 2368.2,-143.73 2368.2,-143.73"/>
<polygon fill="black" stroke="black" points="2364.7,-143.73 2368.2,-153.73 2371.7,-143.73 2364.7,-143.73"/>
</g>
<!-- NotificationComponent  -->
<g id="node31" class="node">
<title>NotificationComponent </title>
<polygon fill="#fb8072" stroke="black" points="2424.48,-258 2271.52,-258 2271.52,-222 2424.48,-222 2424.48,-258"/>
<text text-anchor="middle" x="2348" y="-235.8" font-family="Times,serif" font-size="14.00">NotificationComponent </text>
</g>
<!-- NotificationModule&#45;&gt;NotificationComponent  -->
<g id="edge28" class="edge">
<title>NotificationModule&#45;&gt;NotificationComponent </title>
<path fill="none" stroke="black" stroke-dasharray="5,2" d="M2347,-190.22C2347,-190.22 2347,-211.73 2347,-211.73"/>
<polygon fill="black" stroke="black" points="2343.5,-211.73 2347,-221.73 2350.5,-211.73 2343.5,-211.73"/>
</g>
<!-- UserActionsComponent -->
<g id="node34" class="node">
<title>UserActionsComponent</title>
<polygon fill="#ffffb3" stroke="black" points="2807.81,-122 2656.19,-122 2656.19,-86 2807.81,-86 2807.81,-122"/>
<text text-anchor="middle" x="2732" y="-99.8" font-family="Times,serif" font-size="14.00">UserActionsComponent</text>
</g>
<!-- UserActionsComponent&#45;&gt;UserModule -->
<g id="edge31" class="edge">
<title>UserActionsComponent&#45;&gt;UserModule</title>
<path fill="none" stroke="black" d="M2749.33,-122.22C2749.33,-122.22 2749.33,-143.73 2749.33,-143.73"/>
<polygon fill="black" stroke="black" points="2745.83,-143.73 2749.33,-153.73 2752.83,-143.73 2745.83,-143.73"/>
</g>
<!-- UserLoginFormComponent -->
<g id="node35" class="node">
<title>UserLoginFormComponent</title>
<polygon fill="#ffffb3" stroke="black" points="2638.54,-122 2467.46,-122 2467.46,-86 2638.54,-86 2638.54,-122"/>
<text text-anchor="middle" x="2553" y="-99.8" font-family="Times,serif" font-size="14.00">UserLoginFormComponent</text>
</g>
<!-- UserLoginFormComponent&#45;&gt;UserModule -->
<g id="edge32" class="edge">
<title>UserLoginFormComponent&#45;&gt;UserModule</title>
<path fill="none" stroke="black" d="M2581.59,-122.27C2581.59,-140.56 2581.59,-166 2581.59,-166 2581.59,-166 2681.86,-166 2681.86,-166"/>
<polygon fill="black" stroke="black" points="2681.86,-169.5 2691.86,-166 2681.86,-162.5 2681.86,-169.5"/>
</g>
<!-- UserProfileComponent -->
<g id="node36" class="node">
<title>UserProfileComponent</title>
<polygon fill="#ffffb3" stroke="black" points="3173.86,-122 3028.14,-122 3028.14,-86 3173.86,-86 3173.86,-122"/>
<text text-anchor="middle" x="3101" y="-99.8" font-family="Times,serif" font-size="14.00">UserProfileComponent</text>
</g>
<!-- UserProfileComponent&#45;&gt;UserModule -->
<g id="edge33" class="edge">
<title>UserProfileComponent&#45;&gt;UserModule</title>
<path fill="none" stroke="black" d="M3032.7,-122.03C3032.7,-142.77 3032.7,-174 3032.7,-174 3032.7,-174 2788.29,-174 2788.29,-174"/>
<polygon fill="black" stroke="black" points="2788.29,-170.5 2778.29,-174 2788.29,-177.5 2788.29,-170.5"/>
</g>
<!-- UserRegisterFormComponent -->
<g id="node37" class="node">
<title>UserRegisterFormComponent</title>
<polygon fill="#ffffb3" stroke="black" points="3010.24,-122 2825.76,-122 2825.76,-86 3010.24,-86 3010.24,-122"/>
<text text-anchor="middle" x="2918" y="-99.8" font-family="Times,serif" font-size="14.00">UserRegisterFormComponent</text>
</g>
<!-- UserRegisterFormComponent&#45;&gt;UserModule -->
<g id="edge34" class="edge">
<title>UserRegisterFormComponent&#45;&gt;UserModule</title>
<path fill="none" stroke="black" d="M2950.54,-122.03C2950.54,-141.58 2950.54,-170 2950.54,-170 2950.54,-170 2788.1,-170 2788.1,-170"/>
<polygon fill="black" stroke="black" points="2788.1,-166.5 2778.1,-170 2788.1,-173.5 2788.1,-166.5"/>
</g>
<!-- UserActionsComponent  -->
<g id="node39" class="node">
<title>UserActionsComponent </title>
<polygon fill="#fb8072" stroke="black" points="2812.31,-258 2657.69,-258 2657.69,-222 2812.31,-222 2812.31,-258"/>
<text text-anchor="middle" x="2735" y="-235.8" font-family="Times,serif" font-size="14.00">UserActionsComponent </text>
</g>
<!-- UserModule&#45;&gt;UserActionsComponent  -->
<g id="edge36" class="edge">
<title>UserModule&#45;&gt;UserActionsComponent </title>
<path fill="none" stroke="black" stroke-dasharray="5,2" d="M2735,-190.22C2735,-190.22 2735,-211.73 2735,-211.73"/>
<polygon fill="black" stroke="black" points="2731.5,-211.73 2735,-221.73 2738.5,-211.73 2731.5,-211.73"/>
</g>
<!-- UserLoginFormComponent  -->
<g id="node40" class="node">
<title>UserLoginFormComponent </title>
<polygon fill="#fb8072" stroke="black" points="2639.54,-258 2464.46,-258 2464.46,-222 2639.54,-222 2639.54,-258"/>
<text text-anchor="middle" x="2552" y="-235.8" font-family="Times,serif" font-size="14.00">UserLoginFormComponent </text>
</g>
<!-- UserModule&#45;&gt;UserLoginFormComponent  -->
<g id="edge37" class="edge">
<title>UserModule&#45;&gt;UserLoginFormComponent </title>
<path fill="none" stroke="black" stroke-dasharray="5,2" d="M2691.88,-178C2630.27,-178 2524.41,-178 2524.41,-178 2524.41,-178 2524.41,-211.73 2524.41,-211.73"/>
<polygon fill="black" stroke="black" points="2520.91,-211.73 2524.41,-221.73 2527.91,-211.73 2520.91,-211.73"/>
</g>
<!-- UserProfileComponent  -->
<g id="node41" class="node">
<title>UserProfileComponent </title>
<polygon fill="#fb8072" stroke="black" points="3186.86,-258 3037.14,-258 3037.14,-222 3186.86,-222 3186.86,-258"/>
<text text-anchor="middle" x="3112" y="-235.8" font-family="Times,serif" font-size="14.00">UserProfileComponent </text>
</g>
<!-- UserModule&#45;&gt;UserProfileComponent  -->
<g id="edge38" class="edge">
<title>UserModule&#45;&gt;UserProfileComponent </title>
<path fill="none" stroke="black" stroke-dasharray="5,2" d="M2778.24,-178C2876.01,-178 3105.62,-178 3105.62,-178 3105.62,-178 3105.62,-211.73 3105.62,-211.73"/>
<polygon fill="black" stroke="black" points="3102.13,-211.73 3105.62,-221.73 3109.13,-211.73 3102.13,-211.73"/>
</g>
<!-- UserRegisterFormComponent  -->
<g id="node42" class="node">
<title>UserRegisterFormComponent </title>
<polygon fill="#fb8072" stroke="black" points="3019.24,-258 2830.76,-258 2830.76,-222 3019.24,-222 3019.24,-258"/>
<text text-anchor="middle" x="2925" y="-235.8" font-family="Times,serif" font-size="14.00">UserRegisterFormComponent </text>
</g>
<!-- UserModule&#45;&gt;UserRegisterFormComponent  -->
<g id="edge39" class="edge">
<title>UserModule&#45;&gt;UserRegisterFormComponent </title>
<path fill="none" stroke="black" stroke-dasharray="5,2" d="M2778.37,-182C2824.45,-182 2890.71,-182 2890.71,-182 2890.71,-182 2890.71,-211.97 2890.71,-211.97"/>
<polygon fill="black" stroke="black" points="2887.21,-211.97 2890.71,-221.97 2894.21,-211.97 2887.21,-211.97"/>
</g>
<!-- ViewHomeComponent -->
<g id="node43" class="node">
<title>ViewHomeComponent</title>
<polygon fill="#ffffb3" stroke="black" points="505.86,-190 360.14,-190 360.14,-154 505.86,-154 505.86,-190"/>
<text text-anchor="middle" x="433" y="-167.8" font-family="Times,serif" font-size="14.00">ViewHomeComponent</text>
</g>
<!-- ViewHomeComponent&#45;&gt;ViewModule -->
<g id="edge40" class="edge">
<title>ViewHomeComponent&#45;&gt;ViewModule</title>
<path fill="none" stroke="black" d="M376,-190.22C376,-190.22 376,-211.73 376,-211.73"/>
<polygon fill="black" stroke="black" points="372.5,-211.73 376,-221.73 379.5,-211.73 372.5,-211.73"/>
</g>
<!-- ViewMessageComponent -->
<g id="node44" class="node">
<title>ViewMessageComponent</title>
<polygon fill="#ffffb3" stroke="black" points="342.13,-190 181.87,-190 181.87,-154 342.13,-154 342.13,-190"/>
<text text-anchor="middle" x="262" y="-167.8" font-family="Times,serif" font-size="14.00">ViewMessageComponent</text>
</g>
<!-- ViewMessageComponent&#45;&gt;ViewModule -->
<g id="edge41" class="edge">
<title>ViewMessageComponent&#45;&gt;ViewModule</title>
<path fill="none" stroke="black" d="M322.19,-190.22C322.19,-190.22 322.19,-211.73 322.19,-211.73"/>
<polygon fill="black" stroke="black" points="318.69,-211.73 322.19,-221.73 325.69,-211.73 318.69,-211.73"/>
</g>
<!-- ViewProfileComponent -->
<g id="node45" class="node">
<title>ViewProfileComponent</title>
<polygon fill="#ffffb3" stroke="black" points="673.75,-190 524.25,-190 524.25,-154 673.75,-154 673.75,-190"/>
<text text-anchor="middle" x="599" y="-167.8" font-family="Times,serif" font-size="14.00">ViewProfileComponent</text>
</g>
<!-- ViewProfileComponent&#45;&gt;ViewModule -->
<g id="edge42" class="edge">
<title>ViewProfileComponent&#45;&gt;ViewModule</title>
<path fill="none" stroke="black" d="M599,-190.27C599,-208.56 599,-234 599,-234 599,-234 402.05,-234 402.05,-234"/>
<polygon fill="black" stroke="black" points="402.05,-230.5 392.05,-234 402.05,-237.5 402.05,-230.5"/>
</g>
<!-- ViewRoutingModule -->
<g id="node47" class="node">
<title>ViewRoutingModule</title>
<polygon fill="#8dd3c7" stroke="black" points="158.49,-190 155.49,-194 134.49,-194 131.49,-190 23.51,-190 23.51,-154 158.49,-154 158.49,-190"/>
<text text-anchor="middle" x="91" y="-167.8" font-family="Times,serif" font-size="14.00">ViewRoutingModule</text>
</g>
<!-- ViewRoutingModule&#45;&gt;ViewModule -->
<g id="edge45" class="edge">
<title>ViewRoutingModule&#45;&gt;ViewModule</title>
<path fill="none" stroke="black" d="M91,-190.22C91,-210.37 91,-240 91,-240 91,-240 292.12,-240 292.12,-240"/>
<polygon fill="black" stroke="black" points="292.12,-243.5 302.12,-240 292.12,-236.5 292.12,-243.5"/>
</g>
</g>
</svg>
